<svg xmlns="http://www.w3.org/2000/svg" width="100" height="100" viewBox="0 0 100 100"><defs><style>.a{fill:#fff}.b{fill:#ff006e}</style></defs><title>facebook</title><circle class="a" cx="49.54" cy="50.3" r="48" transform="rotate(-89.2 49.547 50.3)"/><path class="b" d="M50.21 2.31A48 48 0 1 0 97.54 51 48 48 0 0 0 50.21 2.31zm10.9 33.33l-7.22-.1c-.85 0-1.82 1.1-1.84 2.6l-.05 5.2 9 .13-.1 7.43-9-.13-.31 22.3-8.52-.12.31-22.3-7.72-.11.1-7.43 7.72.11.06-4.37C43.62 32.58 48 27.54 54 27.62l7.22.1z"/></svg>