<svg xmlns="http://www.w3.org/2000/svg" width="300" height="300" viewBox="0 0 300 300"><defs><style>.a{fill:#fff}.b{fill:none}.c{clip-path:url(#a)}.d{opacity:.25;fill:url(#b)}</style><clipPath id="a"><path class="a" d="M116.88 80.64h68.3v211.02h-68.3z"/></clipPath><pattern id="b" width="28.8" height="28.8" patternTransform="matrix(.33 -.34 .33 .34 840.78 363.47)" patternUnits="userSpaceOnUse" viewBox="0 0 28.8 28.8"><path class="b" d="M0 0h28.8v28.8H0z"/><circle cx="28.8" cy="28.8" r="2.88"/><circle cx="14.4" cy="28.8" r="2.88"/><circle cx="28.8" cy="14.4" r="2.88"/><circle cx="14.4" cy="14.4" r="2.88"/><circle cx="7.2" cy="21.6" r="2.88"/><circle cx="21.6" cy="21.6" r="2.88"/><circle cx="7.2" cy="7.2" r="2.88"/><circle cx="21.6" cy="7.2" r="2.88"/><circle cy="28.8" r="2.88"/><circle cy="14.4" r="2.88"/><circle cx="28.8" r="2.88"/><circle cx="14.4" r="2.88"/><circle r="2.88"/></pattern></defs><title>graph-01</title><path class="a" d="M25.82 149.38h68.3v142.28h-68.3zm91.06-68.74h68.3v211.02h-68.3z"/><g class="c"><path class="d" d="M232.65 101.5c46.06 47.45 46.06 124.38 0 171.82s-120.74 47.45-166.81 0S19.79 149 65.85 101.5s120.74-47.44 166.8 0z"/></g><path class="a" d="M207.94 5h68.3v286.67h-68.3z"/></svg>