<svg xmlns="http://www.w3.org/2000/svg" width="100" height="100" viewBox="0 0 100 100"><defs><style>.a{fill:none;clip-rule:evenodd}.b{fill:#fff}.c{clip-path:url(#a)}.d{fill:#ff006e}</style><clipPath id="a"><path class="a" d="M50 2a48 48 0 1 0 48 48A48 48 0 0 0 50 2zm20 61.66a6.17 6.17 0 0 1-6.17 6.17H36.71a6.17 6.17 0 0 1-6.17-6.17V47.79h8a11.94 11.94 0 1 0 23.44 0h8zM42.93 50.09a7.35 7.35 0 1 1 7.35 7.35 7.35 7.35 0 0 1-7.35-7.35zM70 43.2H60a11.94 11.94 0 0 0-19.5 0h-10v-6.69a6.17 6.17 0 0 1 6.17-6.17h27.19A6.17 6.17 0 0 1 70 36.51z"/></clipPath></defs><title>instagram</title><circle class="b" cx="50" cy="50" r="48" transform="rotate(-89.2 50.003 50)"/><g class="c"><path class="d" d="M-12.08-12.08h124.16v124.16H-12.08z"/></g></svg>