<svg xmlns="http://www.w3.org/2000/svg" width="283.54mm" height="288.62mm" viewBox="0 0 803.73 818.14"><defs><style>.a,.l,.m{fill:none}.b{clip-path:url(#a)}.c{clip-path:url(#b)}.d{fill:#1770ba}.e{fill:#ff006e}.f{fill:#00a7e1}.g{fill:#7a28cb}.h{fill:#ffb000}.i,.n{fill:#fff}.i{opacity:.3}.i,.j,.k,.n{isolation:isolate}.j,.k{opacity:.25}.j{fill:url(#c)}.k{fill:url(#d)}.l,.m,.n{stroke:#fff;stroke-linecap:round;stroke-linejoin:round}.l,.m{stroke-width:3px}.l{stroke-dasharray:13 13}.n{opacity:.98}</style><clipPath id="a"><ellipse class="a" cx="403.28" cy="410.91" rx="389.05" ry="400.75"/></clipPath><clipPath id="b"><path class="a" d="M-195.61-.05h1196v821h-1196z"/></clipPath><pattern id="c" width="28.8" height="28.8" patternTransform="matrix(.81 -.83 -.81 -.83 2069.79 -294.27)" patternUnits="userSpaceOnUse" viewBox="0 0 28.8 28.8"><path class="a" d="M0 0h28.8v28.8H0z"/><path class="a" d="M0 28.8h28.8V0H0z"/><circle cx="28.8" r="2.88"/><circle cx="14.4" r="2.88"/><circle cx="28.8" cy="14.4" r="2.88"/><circle cx="14.4" cy="14.4" r="2.88"/><circle cx="7.2" cy="7.2" r="2.88"/><circle cx="21.6" cy="7.2" r="2.88"/><circle cx="7.2" cy="21.6" r="2.88"/><circle cx="21.6" cy="21.6" r="2.88"/><circle r="2.88"/><circle cy="14.4" r="2.88"/><circle cx="28.8" cy="28.8" r="2.88"/><circle cx="14.4" cy="28.8" r="2.88"/><circle cy="28.8" r="2.88"/></pattern><pattern id="d" width="28.8" height="28.8" patternTransform="matrix(.81 -.83 -.81 -.83 1969.75 -273.63)" patternUnits="userSpaceOnUse" viewBox="0 0 28.8 28.8"><path class="a" d="M0 0h28.8v28.8H0z"/><path class="a" d="M0 28.8h28.8V0H0z"/><circle cx="28.8" r="2.88"/><circle cx="14.4" r="2.88"/><circle cx="28.8" cy="14.4" r="2.88"/><circle cx="14.4" cy="14.4" r="2.88"/><circle cx="7.2" cy="7.2" r="2.88"/><circle cx="21.6" cy="7.2" r="2.88"/><circle cx="7.2" cy="21.6" r="2.88"/><circle cx="21.6" cy="21.6" r="2.88"/><circle r="2.88"/><circle cy="14.4" r="2.88"/><circle cx="28.8" cy="28.8" r="2.88"/><circle cx="14.4" cy="28.8" r="2.88"/><circle cy="28.8" r="2.88"/></pattern></defs><title>logo</title><g class="b"><g class="c"><path class="d" d="M401.73 256.2c50.52 139.64-18.42 295-154 347.06s-286.41-19-336.93-158.61 18.42-295 154-347.06 286.41 18.98 336.93 158.61z"/><path class="e" d="M475 538.77c50.52 139.64-18.42 295-154 347.06s-286.38-19-336.9-158.6 18.42-295 154-347.06 286.38 19 336.9 158.6z"/><path class="f" d="M843.64 531.57c50.52 139.64-18.42 295-154 347.06s-286.35-19-336.9-158.6 18.42-295 154-347.06 286.38 19 336.9 158.6z"/><path class="g" d="M637.49 114.1c50.52 139.64-18.42 295-154 347.06s-286.41-19-336.93-158.61 18.42-295 154-347.06S587-25.54 637.49 114.1z"/><path class="h" d="M922 249.38c50.52 139.64-18.42 295-154 347.06s-286.41-19-336.93-158.61 18.42-295 154-347.06S871.49 109.74 922 249.38z"/><ellipse class="i" cx="5.93" cy="718.46" rx="286.54" ry="295.15"/><ellipse class="i" cx="738.52" cy="131.54" rx="209.07" ry="215.36"/><path class="j" d="M946.08 528.44c111.82 115.18 111.82 301.94 0 417.12s-293.12 115.18-404.94 0-111.82-301.94 0-417.12 293.15-115.18 404.94 0z"/><path class="k" d="M290.67-143c111.82 115.18 111.82 301.94 0 417.12s-293.12 115.18-404.94 0-111.82-301.94 0-417.12 293.12-115.23 404.94 0z"/></g><path class="l" d="M173.8 608.41c14 40.76 119.38 95.56 233.93 93.17 101.58-2.13 164.58-40.78 215-93.85"/><path class="m" d="M651.68 574.67l-8.15 39-27-25.68 35.18-13.28z"/><path class="l" d="M621.75 221.75c-14-40.76-119.38-95.56-233.93-93.17-101.58 2.13-164.58 40.78-215 93.85"/><path class="m" d="M143.88 255.48l8.15-39 27 25.67-35.18 13.29z"/><path class="n" d="M345.82 449.91c-114.45-32-115.26-91.78-114.45-128 .82-58.11 68.67-112 148.78-112 76 0 156.14 34.52 157 130.52H430c-.81-29.47-25.34-34.52-43.33-34.52-24.53 0-40.87 11.79-40.06 29.47.81 11.79 10.62 23.58 33.52 29.47l64.58 17.69c92.38 26.08 103.82 89.29 103.82 114.52 0 83.37-85 122.94-165.13 122.94-77.64 0-158.57-48-159.4-135.55h106.29c.82 22.73 25.34 45.48 56.4 45.48 25.34-.84 46.6-12.63 46.6-32.84 0-16.84-9.81-26.08-37.6-33.69z"/></g></svg>