<svg xmlns="http://www.w3.org/2000/svg" width="1310.56" height="1261.39" viewBox="0 0 1310.56 1261.39"><defs><style>.a,.l,.m{fill:none}.b{clip-path:url(#a)}.c{clip-path:url(#b)}.d{fill:#1770ba}.e{fill:#ff006e}.f{fill:#00a7e1}.g{fill:#7a28cb}.h{fill:#ffb000}.i,.n{fill:#fff}.i{opacity:.3}.j,.k{opacity:.25}.j{fill:url(#c)}.k{fill:url(#d)}.l,.m,.n{stroke:#fff;stroke-linecap:round;stroke-linejoin:round}.l,.m{stroke-width:3px}.l{stroke-dasharray:13 13}.n{opacity:.98}</style><clipPath id="a" transform="translate(270.9 229.41)"><ellipse class="a" cx="412.99" cy="410.94" rx="389.05" ry="400.75"/></clipPath><clipPath id="b" transform="translate(270.9 229.41)"><path class="a" d="M-185.68-.09H1010.4v821.03H-185.68z"/></clipPath><pattern id="c" width="28.8" height="28.8" patternTransform="matrix(.81 -.83 .81 .83 2094.89 892.21)" patternUnits="userSpaceOnUse" viewBox="0 0 28.8 28.8"><path class="a" d="M0 0h28.8v28.8H0z"/><circle cx="28.8" cy="28.8" r="2.88"/><circle cx="14.4" cy="28.8" r="2.88"/><circle cx="28.8" cy="14.4" r="2.88"/><circle cx="14.4" cy="14.4" r="2.88"/><circle cx="7.2" cy="21.6" r="2.88"/><circle cx="21.6" cy="21.6" r="2.88"/><circle cx="7.2" cy="7.2" r="2.88"/><circle cx="21.6" cy="7.2" r="2.88"/><circle cy="28.8" r="2.88"/><circle cy="14.4" r="2.88"/><circle cx="28.8" r="2.88"/><circle cx="14.4" r="2.88"/><circle r="2.88"/></pattern><pattern id="d" width="28.8" height="28.8" patternTransform="matrix(.81 -.83 .81 .83 1994.85 871.57)" patternUnits="userSpaceOnUse" viewBox="0 0 28.8 28.8"><path class="a" d="M0 0h28.8v28.8H0z"/><circle cx="28.8" cy="28.8" r="2.88"/><circle cx="14.4" cy="28.8" r="2.88"/><circle cx="28.8" cy="14.4" r="2.88"/><circle cx="14.4" cy="14.4" r="2.88"/><circle cx="7.2" cy="21.6" r="2.88"/><circle cx="21.6" cy="21.6" r="2.88"/><circle cx="7.2" cy="7.2" r="2.88"/><circle cx="21.6" cy="7.2" r="2.88"/><circle cy="28.8" r="2.88"/><circle cy="14.4" r="2.88"/><circle cx="28.8" r="2.88"/><circle cx="14.4" r="2.88"/><circle r="2.88"/></pattern></defs><title>logo</title><g class="b"><g class="c"><path class="d" d="M682.34 485.64c50.52 139.64-18.42 295-154 347.06s-286.41-19-336.93-158.61 18.42-295 154-347.06 286.41 18.98 336.93 158.61z"/><path class="e" d="M755.63 768.21c50.52 139.64-18.42 295-154 347.06s-286.38-18.96-336.9-158.6 18.42-295 154-347.06 286.38 18.97 336.9 158.6z"/><path class="f" d="M1124.25 761.01c50.52 139.64-18.42 295-154 347.06s-286.35-18.97-336.9-158.6 18.42-295 154-347.06 286.38 19 336.9 158.6z"/><path class="g" d="M918.1 343.54c50.52 139.64-18.42 295-154 347.06s-286.41-19-336.93-158.61 18.42-295 154-347.06 286.4 18.97 336.93 158.61z"/><path class="h" d="M1202.62 478.82c50.52 139.64-18.42 295-154 347.06s-286.41-19-336.93-158.61 18.42-295 154-347.06 286.41 18.97 336.93 158.61z"/><ellipse class="i" cx="286.54" cy="947.9" rx="286.54" ry="295.15"/><ellipse class="i" cx="1019.13" cy="360.98" rx="209.07" ry="215.36"/><path class="j" d="M1226.69 757.88c111.82 115.18 111.82 301.94 0 417.12s-293.12 115.18-404.94 0-111.82-301.94 0-417.12 293.15-115.18 404.94 0z"/><path class="k" d="M571.28 86.41c111.82 115.18 111.82 301.94 0 417.12s-293.12 115.18-404.94 0-111.82-301.94 0-417.12 293.12-115.2 404.94 0z"/></g></g><path class="l" d="M454.41 837.85c14 40.76 119.38 95.56 233.93 93.17 101.58-2.13 164.58-40.78 215-93.85"/><path class="m" d="M932.29 804.11l-8.15 38.96-27.03-25.68 35.18-13.28z"/><path class="l" d="M902.36 451.19c-14-40.76-119.38-95.56-233.93-93.17-101.58 2.13-164.58 40.78-215 93.85"/><path class="m" d="M424.49 484.92l8.15-38.96 27.03 25.67-35.18 13.29z"/><path class="n" d="M626.56 679.24c-114.08-31.9-114.89-91.49-114.08-127.58.82-57.92 68.45-111.63 148.3-111.63 75.78 0 155.64 34.41 156.45 130.1H710.49c-.81-29.38-25.26-34.41-43.19-34.41-24.45 0-40.74 11.75-39.93 29.38.81 11.75 10.59 23.5 33.41 29.38l64.37 17.63c92.08 26 103.49 89 103.49 114.15 0 83.1-84.74 122.55-164.6 122.55-77.41 0-158.08-47.84-158.9-135.14h105.94c.82 22.66 25.26 45.33 56.22 45.33 25.26-.84 46.45-12.59 46.45-32.74 0-16.79-9.78-26-37.48-33.58z"/></svg>