<svg xmlns="http://www.w3.org/2000/svg" width="300" height="300" viewBox="0 0 300 300"><defs><style>.a{fill:#fff}.b{fill:none}.c{clip-path:url(#a)}.d{opacity:.25;fill:url(#b)}</style><clipPath id="a"><rect class="a" x="24" y="69.33" width="253.33" height="63.33" rx="3" ry="3"/></clipPath><pattern id="b" width="28.8" height="28.8" patternTransform="matrix(.39 -.4 .39 .4 994.4 429.62)" patternUnits="userSpaceOnUse" viewBox="0 0 28.8 28.8"><path class="b" d="M0 0h28.8v28.8H0z"/><circle cx="28.8" cy="28.8" r="2.88"/><circle cx="14.4" cy="28.8" r="2.88"/><circle cx="28.8" cy="14.4" r="2.88"/><circle cx="14.4" cy="14.4" r="2.88"/><circle cx="7.2" cy="21.6" r="2.88"/><circle cx="21.6" cy="21.6" r="2.88"/><circle cx="7.2" cy="7.2" r="2.88"/><circle cx="21.6" cy="7.2" r="2.88"/><circle cy="28.8" r="2.88"/><circle cy="14.4" r="2.88"/><circle cx="28.8" r="2.88"/><circle cx="14.4" r="2.88"/><circle r="2.88"/></pattern></defs><title>respect</title><rect class="a" x="24" y="69.33" width="253.33" height="63.33" rx="3" ry="3"/><g class="c"><path class="d" d="M249.62.8c53.5 55.11 53.5 144.45 0 199.56s-140.23 55.11-193.73 0S2.39 55.91 55.89.8s140.23-55.11 193.73 0z"/></g><rect class="a" x="24" y="156" width="253.33" height="63.33" rx="3" ry="3"/></svg>