<svg xmlns="http://www.w3.org/2000/svg" width="300" height="300" viewBox="0 0 300 300"><defs><style>.a,.e{fill:#fff}.a,.c,.d,.h{stroke:#fff;stroke-miterlimit:10}.b,.h{fill:none}.c{fill:#ddd}.d{fill:#b2b2b2}.f{clip-path:url(#a)}.g{opacity:.25;fill:url(#b)}</style><clipPath id="a"><path class="a" d="M193.54 106.33c-1.94-.13-3.9-.2-5.88-.2A89.76 89.76 0 0 0 98 192.33c1.94.13 3.9.2 5.88.2a89.76 89.76 0 0 0 89.66-86.2z"/></clipPath><pattern id="b" width="28.8" height="28.8" patternTransform="matrix(.2 -.2 .2 .2 495.82 213.86)" patternUnits="userSpaceOnUse" viewBox="0 0 28.8 28.8"><path class="b" d="M0 0h28.8v28.8H0z"/><circle cx="28.8" cy="28.8" r="2.88"/><circle cx="14.4" cy="28.8" r="2.88"/><circle cx="28.8" cy="14.4" r="2.88"/><circle cx="14.4" cy="14.4" r="2.88"/><circle cx="7.2" cy="21.6" r="2.88"/><circle cx="21.6" cy="21.6" r="2.88"/><circle cx="7.2" cy="7.2" r="2.88"/><circle cx="21.6" cy="7.2" r="2.88"/><circle cy="28.8" r="2.88"/><circle cy="14.4" r="2.88"/><circle cx="28.8" r="2.88"/><circle cx="14.4" r="2.88"/><circle r="2.88"/></pattern></defs><title>transparency</title><path class="c" d="M187.66 106.14c2 0 3.93.07 5.88.2 0-1.18.08-2.37.08-3.57A89.76 89.76 0 1 0 98 192.33a89.76 89.76 0 0 1 89.66-86.19z"/><path class="d" d="M193.54 106.33a89.76 89.76 0 0 1-89.69 86.19c-2 0-3.93-.07-5.88-.2 0 1.18-.08 2.37-.08 3.57a89.76 89.76 0 1 0 95.64-89.57z"/><path class="e" d="M193.54 106.33c-1.94-.13-3.9-.2-5.88-.2A89.76 89.76 0 0 0 98 192.33c1.94.13 3.9.2 5.88.2a89.76 89.76 0 0 0 89.66-86.2z"/><g class="f"><path class="g" d="M194.32 100.89c27.19 28 27.19 73.43 0 101.44a68.21 68.21 0 0 1-98.48 0c-27.19-28-27.19-73.43 0-101.44a68.21 68.21 0 0 1 98.48 0z"/></g><path class="h" d="M193.54 106.33c-1.94-.13-3.9-.2-5.88-.2A89.76 89.76 0 0 0 98 192.33c1.94.13 3.9.2 5.88.2a89.76 89.76 0 0 0 89.66-86.2z"/></svg>