<svg xmlns="http://www.w3.org/2000/svg" width="300" height="300" viewBox="0 0 300 300"><defs><style>.a{fill:#ddd}.a,.b,.d{stroke:#fff;stroke-miterlimit:10}.b{fill:#b2b2b2}.c{fill:#fff}.d{fill:none}</style></defs><title>transparency</title><path class="a" d="M187.66 106.14c2 0 3.93.07 5.88.2 0-1.18.08-2.37.08-3.57A89.76 89.76 0 1 0 98 192.33a89.76 89.76 0 0 1 89.66-86.19z"/><path class="b" d="M193.54 106.33a89.76 89.76 0 0 1-89.69 86.19c-2 0-3.93-.07-5.88-.2 0 1.18-.08 2.37-.08 3.57a89.76 89.76 0 1 0 95.64-89.57z"/><path class="c" d="M193.54 106.33c-1.94-.13-3.9-.2-5.88-.2A89.76 89.76 0 0 0 98 192.33c1.94.13 3.9.2 5.88.2a89.76 89.76 0 0 0 89.66-86.2z"/><path class="d" d="M193.54 106.33c-1.94-.13-3.9-.2-5.88-.2A89.76 89.76 0 0 0 98 192.33c1.94.13 3.9.2 5.88.2a89.76 89.76 0 0 0 89.66-86.2z"/></svg>