<svg xmlns="http://www.w3.org/2000/svg" width="100" height="100" viewBox="0 0 100 100"><defs><style>.a{fill:#fff}.b{fill:#ff006e}</style></defs><title>twitter</title><circle class="a" cx="50" cy="50" r="48" transform="rotate(-89.2 50.003 50)"/><path class="b" d="M50 2a48 48 0 1 0 48 48A48 48 0 0 0 50 2zm19.52 39.32c0 .41 0 .81 0 1.22 0 12.49-9.51 26.9-26.9 26.9a26.75 26.75 0 0 1-14.46-4.24 19.08 19.08 0 0 0 14-3.91 9.46 9.46 0 0 1-8.83-6.56 9.46 9.46 0 0 0 4.27-.16 9.46 9.46 0 0 1-7.6-9.29s0-.08 0-.12a9.42 9.42 0 0 0 4.28 1.18 9.47 9.47 0 0 1-2.93-12.62 26.84 26.84 0 0 0 19.5 9.88A9.46 9.46 0 0 1 67 35a18.9 18.9 0 0 0 6-2.29 9.49 9.49 0 0 1-4.16 5.23 18.9 18.9 0 0 0 5.43-1.49 19.21 19.21 0 0 1-4.75 4.87z"/></svg>