<?xml version="1.0" encoding="UTF-8"?>
<svg width="85px" height="35px" viewBox="0 0 85 35" version="1.1" xmlns="http://www.w3.org/2000/svg" xmlns:xlink="http://www.w3.org/1999/xlink">
    <!-- Generator: Sketch 49.1 (51147) - http://www.bohemiancoding.com/sketch -->
    <title>Combined Shape</title>
    <desc>Created with Sketch.</desc>
    <defs></defs>
    <g id="Blog" stroke="none" stroke-width="1" fill="none" fill-rule="evenodd">
        <g id="Blog-v3.0" transform="translate(-1092.000000, -2078.000000)" fill="#FF006E">
            <path d="M1153.5,2090 L1153.5,2081.74187 C1153.5,2080.08502 1154.84315,2078.74187 1156.5,2078.74187 C1157.18121,2078.74187 1157.84215,2078.97372 1158.37409,2079.39927 L1175.57174,2093.15739 C1176.86553,2094.19242 1177.07529,2096.0803 1176.04026,2097.37409 C1175.90187,2097.54708 1175.74474,2097.70421 1175.57174,2097.84261 L1158.37409,2111.60073 C1157.0803,2112.63576 1155.19242,2112.426 1154.15739,2111.13221 C1153.73184,2110.60027 1153.5,2109.93934 1153.5,2109.25813 L1153.5,2100 L1095,2100 C1093.34315,2100 1092,2098.65685 1092,2097 L1092,2093 C1092,2091.34315 1093.34315,2090 1095,2090 L1153.5,2090 Z" id="Combined-Shape"></path>
        </g>
    </g>
</svg>