<?xml version="1.0" encoding="utf-8"?>
<!-- Generator: Adobe Illustrator 21.1.0, SVG Export Plug-In . SVG Version: 6.00 Build 0)  -->
<svg version="1.1" id="Layer_1" xmlns="http://www.w3.org/2000/svg" xmlns:xlink="http://www.w3.org/1999/xlink" x="0px" y="0px"
	 viewBox="0 0 1255.9 2626.4" style="enable-background:new 0 0 1255.9 2626.4;" xml:space="preserve">
<style type="text/css">
	.st0{clip-path:url(#SVGID_2_);}
	.st1{clip-path:url(#SVGID_4_);}
	.st2{fill:#F4F4F4;}
	.st3{clip-path:url(#SVGID_6_);}
	.st4{clip-path:url(#SVGID_8_);fill:#DADADA;}
</style>
<title>iphone-light</title>
<g>
	<g>
		<defs>
			<path id="SVGID_1_" d="M144.2,21.3h967.5c68,0,123,55,123,123.1v2337.7c0,68.1-55,123.1-123,123.1H144.2c-68,0-123-55-123-123.1
				V144.4C21.2,76.3,76.2,21.3,144.2,21.3z"/>
		</defs>
		<clipPath id="SVGID_2_">
			<use xlink:href="#SVGID_1_"  style="overflow:visible;"/>
		</clipPath>
		<g class="st0">
			<g>
				<defs>
					<rect id="SVGID_3_" x="-4439.5" y="-1175.1" width="6107.3" height="20045.8"/>
				</defs>
				<clipPath id="SVGID_4_">
					<use xlink:href="#SVGID_3_"  style="overflow:visible;"/>
				</clipPath>
				<g class="st1">
					<rect x="-0.2" y="0.2" class="st2" width="1256.2" height="2626"/>
				</g>
			</g>
			<g>
				<defs>
					<path id="SVGID_5_" d="M144.2,21.3h967.5c68,0,123,55,123,123.1v2337.7c0,68.1-55,123.1-123,123.1H144.2
						c-68,0-123-55-123-123.1V144.4C21.2,76.3,76.2,21.3,144.2,21.3z"/>
				</defs>
				<clipPath id="SVGID_6_">
					<use xlink:href="#SVGID_5_"  style="overflow:visible;"/>
				</clipPath>
				<g class="st3">
					<g>
						<defs>
							<path id="SVGID_7_" d="M924,38.4c-7.1,0-12.9,5.7-12.9,13l0,0v15.9c0,30.9-24.9,54.7-56,54.7H398.3c-31.1,0-56-23.5-56-54.7
								V51.5c0-7-5.8-13-12.9-13l0,0H155.2C89.5,38.4,38,91.6,38,159.3v2302.1c0,67.8,54.7,122.5,122,122.5H1092
								c67.3,0,122-54.7,122-122.5V160.6c0-67.5-43.7-122.5-113.3-122.5L924,38.4z"/>
						</defs>
						<clipPath id="SVGID_8_">
							<use xlink:href="#SVGID_7_"  style="overflow:visible;"/>
						</clipPath>
						<path class="st4" d="M49.4,17.1h1218v2587.8H49.4V17.1z"/>
					</g>
				</g>
			</g>
		</g>
	</g>
</g>
</svg>
