<?xml version="1.0" encoding="utf-8"?>
<!-- Generator: Adobe Illustrator 21.1.0, SVG Export Plug-In . SVG Version: 6.00 Build 0)  -->
<svg version="1.1" id="Layer_1" xmlns="http://www.w3.org/2000/svg" xmlns:xlink="http://www.w3.org/1999/xlink" x="0px" y="0px"
	 viewBox="0 0 1255.9 2626.4" style="enable-background:new 0 0 1255.9 2626.4;" xml:space="preserve">
<style type="text/css">
	.st0{clip-path:url(#SVGID_2_);}
	.st1{clip-path:url(#SVGID_4_);}
	.st2{fill:#F4F4F4;}
	.st3{clip-path:url(#SVGID_6_);fill:#DADADA;}
</style>
<title>iphone-light</title>
<g>
	<defs>
		<path id="SVGID_1_" d="M478.5,907.2h298.9c21,0,38,17.3,38,38.7v734.7c0,21.4-17,38.7-38,38.7H478.5c-21,0-38-17.3-38-38.7V945.9
			C440.5,924.5,457.5,907.2,478.5,907.2z"/>
	</defs>
	<clipPath id="SVGID_2_">
		<use xlink:href="#SVGID_1_"  style="overflow:visible;"/>
	</clipPath>
	<g class="st0">
		<defs>
			<rect id="SVGID_3_" x="-937.6" y="531.2" width="1886.8" height="6300"/>
		</defs>
		<clipPath id="SVGID_4_">
			<use xlink:href="#SVGID_3_"  style="overflow:visible;"/>
		</clipPath>
		<g class="st1">
			<rect x="433.9" y="900.6" class="st2" width="388.1" height="825.3"/>
		</g>
	</g>
	<g class="st0">
		<defs>
			<path id="SVGID_5_" d="M719.4,912.6c-2.2,0-4,1.8-4,4.1c0,0,0,0,0,0v5c0,9.7-7.7,17.2-17.3,17.2H557c-9.6,0-17.3-7.4-17.3-17.2
				v-5c0-2.2-1.8-4.1-4-4.1c0,0,0,0,0,0h-53.8c-20.3,0-36.2,16.7-36.2,38v723.5c0,21.3,16.9,38.5,37.7,38.5h287.9
				c20.8,0,37.7-17.2,37.7-38.5V951c0-21.2-13.5-38.5-35-38.5L719.4,912.6z"/>
		</defs>
		<clipPath id="SVGID_6_">
			<use xlink:href="#SVGID_5_"  style="overflow:visible;"/>
		</clipPath>
		<path class="st3" d="M449.2,905.9h376.3v813.3H449.2V905.9z"/>
	</g>
</g>
</svg>
