<svg xmlns="http://www.w3.org/2000/svg" width="1255.93" height="2626.43" viewBox="0 0 1255.93 2626.43"><defs><style>.a,.b{fill:none}.b{clip-rule:evenodd}.c{clip-path:url(#a)}.d{clip-path:url(#b)}.e{fill:#575757}.f{clip-path:url(#c)}.g{fill:#dadada}</style><clipPath id="a" transform="translate(-2507.78 1060.22)"><rect class="a" x="2529" y="-1039" width="1213.5" height="2584" rx="123.05" ry="123.05"/></clipPath><clipPath id="b" transform="translate(-2507.78 1060.22)"><path class="a" d="M-1930.42-2235.53h6105.71v20048.28h-6105.71z"/></clipPath><clipPath id="c" transform="translate(-2507.78 1060.22)"><path class="b" d="M3431.52-1022a12.93 12.93 0 0 0-12.9 13v15.86c0 31-25.06 54.64-56 54.64h-456.44c-30.91 0-56-23.59-56-54.64V-1009a12.93 12.93 0 0 0-12.9-13h-174.11c-65.82 0-117.19 53.25-117.19 120.87v2302.5c0 67.63 54.57 122.45 121.9 122.45h931.52c67.32 0 121.9-54.82 121.9-122.45V-899.58c0-67.62-43.76-122.45-113.23-122.45z"/></clipPath></defs><title>iphone-dark</title><g class="c"><g class="d"><path class="e" d="M0 0h1255.93v2626.43H0z"/></g></g><g class="f"><g class="d"><path class="g" d="M16.97 16.97h1217.75v2588.24H16.97z"/></g></g></svg>