<svg xmlns="http://www.w3.org/2000/svg" xmlns:xlink="http://www.w3.org/1999/xlink" width="1255.93" height="2626.43" viewBox="0 0 1255.93 2626.43"><defs><style>.a,.b{fill:none;}.b{clip-rule:evenodd;}.c{clip-path:url(#a);}.d{clip-path:url(#b);}.e{fill:#f4f4f4;}.f{clip-path:url(#c);}.g{fill:#dadada;}</style><clipPath id="a" transform="translate(-16.78 9.22)"><rect class="a" x="38" y="12" width="1213.5" height="2584" rx="123.05" ry="123.05"/></clipPath><clipPath id="b" transform="translate(-16.78 9.22)"><rect class="a" x="-4421.42" y="-1184.53" width="6105.71" height="20048.28"/></clipPath><clipPath id="c" transform="translate(-16.78 9.22)"><path class="b" d="M940.52,29a12.93,12.93,0,0,0-12.9,13V57.79c0,31-25.06,54.64-56,54.64H415.18c-30.91,0-56-23.59-56-54.64V41.93a12.93,12.93,0,0,0-12.9-13H172.17C106.35,29,55,82.22,55,149.84v2302.5c0,67.63,54.57,122.45,121.9,122.45h931.52c67.32,0,121.9-54.82,121.9-122.45V151.42c0-67.62-43.76-122.45-113.23-122.45Z"/></clipPath></defs><title>iphone-light</title><g class="c"><g class="d"><rect class="e" width="1255.93" height="2626.43"/></g></g><g class="f"><g class="d"><rect class="g" x="16.97" y="16.97" width="1217.75" height="2588.24"/></g></g></svg>